<svg viewBox="0 0 285.5 174.6" xmlns="http://www.w3.org/2000/svg"><g fill="#071f2c"><path d="m30.7 118.8c.1-.1.2-.1.2.1-.6 2.2-4.9 7.1-13 7.1-12.1-.1-17.9-9.4-17.9-17.7 0-10.7 8.1-17.3 17.7-17.3 4.7 0 8.9 1.4 11.8 2.9 0 0-.1 7.8-.1 7.9 0 .2-.1.2-.1.1-2.2-5.1-6-9.2-11.9-9.2-7.1 0-12.2 6.6-12.2 14 0 9 7.6 16.6 15 16.6 6.4-.1 9.5-3.7 10.5-4.5zm253 0v-27.7s0-.2-.1-.2c-.9.2-5.9 1.3-6.2 1.4-.4.1-.3.2-.2.3.6.7 1.6 1.6 1.6 4.3v19c0 .2 0 .5-.1.6-1.2 4.1-5.1 7.4-10.1 7.4-6.4 0-8.8-5.6-8.7-11.4v-21.2s0-.2-.2-.1c-1 .2-6 1-6.2 1.1-.1 0-.2.1 0 .2.4.5 1.5 1.7 1.5 3.6v14.3c-.3 14.3 8.8 15.4 13.8 15.4 3.3 0 7-1.3 9.9-3.7.1-.1.2 0 .2.1s.2 2.3.3 3c0 .2 0 .2.2.2 1-.2 5.7-1.1 6.2-1.2.2 0 .2-.2 0-.3-.5-.3-1.9-1.3-1.9-5.1zm-244.8 1.8.1-46s0-.1-.1-.1-.2 0-.3 0c0 0-5.4 1-5.4 1s-.5.1-.8.1c-.3.1-.2.3 0 .3s.6.5.6.5c.8 1.1 1 1.7 1 4v40.8c-.1 2.6-1.6 4.1-1.7 4.2s-.1.2 0 .2h4.2s4.4 0 4.5 0 .1-.1 0-.2-2-1.2-2.1-4.8zm78.8-.9c0-2.2-.1-37.8-.1-37.8v-7.4s0-.2-.2-.2c-1.2.2-7 1.2-7.2 1.2s-.2.2 0 .3.7.5.9.7c1.3 1.1 1.3 3.5 1.3 4v13.3s0 .3-.3.1c-2.1-1.6-5.9-2.9-9.6-2.9-9.3 0-16.6 6.7-16.8 17.1-.2 10.9 7.8 17.8 16.2 17.8 6.4 0 9.2-4.7 9.3-5.8 0-.3-.1-.2-.2-.2-.5.6-2.6 3.3-7 3.3-6.8 0-13.4-5.9-13.4-16.7 0-7 4.2-13.8 11.9-13.8 5.3 0 9.9 4.6 9.9 9.4v19.1c0 2.5-1.3 3.7-1.8 4.2-.1.1-.1.2 0 .2h4.3 4.2c.1 0 .1-.1 0-.2-.4-.7-1.4-2.1-1.4-5.7zm63.8-28.7c-3.9 0-7.5 1.4-9.9 3.1-.2.1-.2-.1-.2-.2s-.1-2.8-.1-2.8 0-.1-.2-.1c-.9.2-6.3 1.2-6.6 1.3s-.2.3 0 .4c.1.1.4.4.4.4 1.4 1.6 1.3 3.9 1.3 3.9v41.3c0 2.3-1.2 3.7-1.9 4.2-.1.1-.1.2 0 .2h4.5 4.5c.1 0 .1-.2 0-.2-1.3-.6-1.9-2.2-1.9-5.7 0 0 0-36 0-36.2 0-.5.1-.8.2-.9 1.5-3.4 4.8-6.7 9.9-6.7 6.4 0 11.5 5.3 11.5 13.7 0 12.1-7.9 16.6-12.7 16.6-4.6 0-7.2-3-7.4-3.2-.1-.1-.2-.1-.1.2.1.2 1.6 5.5 9.4 5.5s15.7-6.6 15.7-18c-.1-10.7-8.2-16.8-16.4-16.8zm-116.7-11.5c-.7 0-3.9 0-5.5 0-.2 0-.3.1-.3.1-.1.1-5 6.3-7.4 9.2-.1.1 0 .1 0 .1h1.6c.1 0 .1 0 .1-.1 2.2-1.7 11.3-9.1 11.4-9.2.1 0 .2-.1.1-.1zm-10.5 39.4c.1.2.2.1.2-.1 0-.3-.6-2.5-.1-5.2 1.3-6.6 6.4-9.4 16.1-14 .2-.1.5-.1.3-.5-1.2-2.1-1.8-2.6-2.3-3.2-2.4-2.8-6.1-4.8-10.6-4.8-7.9 0-15.5 5.8-15.5 16.1 0 11.5 8 18.5 16.7 18.5 7.7 0 11.7-4.8 12.2-6.9.1-.2 0-.3-.2-.2-.3.3-3.8 4.4-8.9 4.4-9.1 0-14.8-7.9-14.8-15.9 0-7.6 3.7-14.6 10.3-14.6 5.3 0 7.7 4.9 7.7 5 .1.2.1.2-.1.3-.1.1-.5.3-.8.4-11.3 5.8-15.3 12.7-10.2 20.7zm78.8 0c.1.2.2.1.2-.1 0-.3-.6-2.5-.1-5.2 1.3-6.6 6.4-9.4 16.1-14 .2-.1.5-.1.3-.5-1.2-2.1-1.8-2.6-2.3-3.2-2.4-2.8-6.1-4.8-10.6-4.8-7.9 0-15.5 5.8-15.5 16.1 0 11.5 8 18.5 16.7 18.5 7.7 0 11.7-4.8 12.2-6.9.1-.2 0-.3-.2-.2-.3.3-3.8 4.4-8.9 4.4-9.1 0-14.8-7.9-14.8-15.9 0-7.6 3.7-14.6 10.3-14.6 5.3 0 7.7 4.9 7.7 5 .1.2.1.2-.1.3-.1.1-.5.3-.8.4-11.3 5.8-15.3 12.7-10.2 20.7zm90.5 3.5c-1.1.4-2.3.7-3.6.7-9.1 0-14.8-7.9-14.8-15.9 0-7.6 3.7-14.6 10.3-14.6 5.3 0 7.7 4.9 7.7 5 .1.2.1.2-.1.3-.1.1-.5.3-.8.4-11.5 5.7-15.4 12.6-10.4 20.6.1.2.2.1.2-.1 0-.3-.6-2.5-.1-5.2 1.3-6.6 6.4-9.4 16.1-14 .2-.1.5-.1.3-.5-1.2-2.1-1.8-2.6-2.3-3.2-2.4-2.8-6.1-4.8-10.6-4.8-7.9 0-15.5 5.8-15.5 16.1 0 11.5 8 18.5 16.7 18.5 3.4 0 6.1-.9 8-2.2.1-.1.1-.1.2 0s3 2.4 7.3 2.4c8.5 0 10.5-5.6 10.7-7.1 0-.3-.2-.2-.3 0-.1.3-2.5 4.4-9 4.4-5.9 0-7-4.6-7-6.1 0-.9 0-5.3 6.8-6.4 3.9-.6 7.5-1.2 10.3-3.1.1-.1.2 0 .2.1v15.2 2.5c0 .3.1.3.3.3s5.8-1.3 6.9-1.5c.1 0 .1-.1 0-.2-1.2-.4-2.1-1.8-2.1-4.8 0-.5 0-8.2 0-11.5 0-2.3 0-4.7-.2-7-.2-2.5-.8-5.3-2.9-7.2-1.8-1.5-3.9-2.6-6.6-2.6-4.2 0-7 2-7.6 2.6-.2.1 0 .3 0 .3l1.7 2.4s.1.1.2 0c.5-.7 2-3.4 5.4-3.4 2.2 0 5.4.5 5.4 6.2 0 1.6-.1 3.1-.5 4.2-1 2.5-2.1 3.8-9.4 4.4-3.3.3-6.4.9-8.3 1.8-4.4 2.1-4.5 6.3-4.5 7.3 0 2.7 1.3 4.7 1.7 5.2.2.2.3.4.2.5zm-165.2 52.1h1.6 3.1c1.8 0 3.2-.3 4.2-.8 3.5-1.8 3.4-5.1 3.4-5.7 0-1.8-.8-3.4-1.7-4.3-1-1-2.2-1.4-2.4-1.5-.1 0-.1-.1 0-.1.1-.1 2.5-1.6 2.5-4.7 0-.9-.3-3.6-2.9-4.7-1.1-.5-2.6-.6-3.9-.5-1.3 0-2.1 0-3 0-.5 0-.8 0-1 0-.1 0-.1 0-.1.1v1.5s0 20.4 0 20.5c.2.1.1.1.2.2-.1 0-.1 0 0 0zm1.8-20.8c0-.1.1-.2.2-.2h2.7c2.1-.1 4.3.9 4.3 4.2 0 2.1-1.3 3.4-2.2 4-.1.1-.2.2-.5.2s-4.2 0-4.4 0c-.1 0-.1-.1-.1-.3s0-7.4 0-7.9zm6.6 18.5c-1.2.9-3.7 1-4.2 1-.2 0-2.2 0-2.3 0s-.1-.1-.1-.2 0-9.5 0-9.7c0-.1 0-.1.1-.1 0 0 3.1-.1 4.4 0 3.1.3 4.2 2.7 4.2 4.8-.1 1.8-1 3.4-2.1 4.2zm82.9-20.1h.8.8c.1 0 .1 0 .1.1v1.5 10.9c0 .4 0 3.2.8 5.1s3 3.5 6.3 3.5c4.8 0 6.5-2.6 6.9-5.1.3-1.4.3-3 .3-3.5 0-1.3 0-12.2 0-12.3s-.1-.2 0-.2h.7.5c.1 0 .1 0 .1.1v.2 12.2c-.1 1.8 0 3.3-.8 5.5-1 2.6-3.9 4.5-7.8 4.5-2.6 0-5.4-.8-7.1-3.1-1.8-2.4-1.8-6.5-1.8-6.9 0-1.4 0-8 0-10.8 0-.7 0-1.5 0-1.5 0-.2.1-.2.2-.2zm-61.2 22.2s.1-20 .1-21.1c0-.4 0-.7 0-.8s0-.3.1-.3h1.1 1.9 7.3c.1 0 0 .1 0 .2v.6.6c0 .1 0 .1-.1.1-.5 0-1.4-.1-2-.1-2.5 0-6.4 0-6.5 0 0 0-.1 0-.1.1v3.7 4.8c0 .1 0 .1.1.1h6.5 1.6c.1 0 .1.1.1.1v.6.6c0 .1 0 .1-.1.1-.3 0-.6-.1-1.2-.1 0 0-1.1 0-2.1 0-2.1 0-4.9 0-4.9 0-.1 0-.1 0-.1.1v9.4c0 .1 0 .1.1.1h2.8 3.7 2.9c.1 0 .1.1 0 .1 0 0-.1.4-.2.7s-.1.4-.1.5c0 0-.1.1-.1.1-.3 0-1.2 0-2.7 0-.8 0-1.5 0-2.4 0-1.7 0-3.5 0-4.7 0-.4 0-.6 0-.8 0-.1 0-.1 0-.4 0 0 0-.1 0-.1-.1s.3 0 .3-.1zm126.5 0s.1-20 .1-21.1c0-.4 0-.7 0-.8s0-.3.1-.3h1.1 1.9 7.3c.1 0 0 .1 0 .2v.6.6c0 .1 0 .1-.1.1-.5 0-1.4-.1-2-.1-2.5 0-6.4 0-6.5 0 0 0-.1 0-.1.1v3.7 4.8c0 .1 0 .1.1.1h6.5 1.6c.1 0 .1.1.1.1v.6.6c0 .1 0 .1-.1.1-.3 0-.6-.1-1.2-.1 0 0-1.1 0-2.1 0-2.1 0-4.9 0-4.9 0-.1 0-.1 0-.1.1v9.3c0 .1 0 .1.1.1h3.8 5.6c.1 0 .1.1 0 .1 0 0-.1.4-.2.7s-.1.4-.1.5c0 0-.1.1-.1.1-.3 0-1.2 0-2.7 0-.8 0-1.5 0-2.4 0-1.7 0-3.5 0-4.7 0-.4 0-.6 0-.8 0-.1 0-.1 0-.4 0 0 0-.1 0-.1-.1s.3.1.3 0zm-30.3-22.2h6.5 8.4c.1 0 .1.1.1.1v1.2c0 .1 0 .1-.1.1s-.8 0-1 0c-.1 0-1.7 0-3.2 0-1.6 0-3.3 0-3.4 0s-.1.1-.1.1v20.8c0 .1 0 .2-.1.2s-.6 0-.7 0c-.6 0-1 0-1 0-.1 0 0 0 0 0s0-.1 0-.2c0-1.9 0-20.5 0-20.7 0-.1-.1-.1-.1-.1s-3.3 0-5.3 0c-.2 0-1.2 0-1.3 0-.3 0-.4 0-.5 0s-.1 0-.1 0 .1-.1.1-.1c.1-.2.3-1 .3-1.2 0-.1.1-.1.2-.1.2-.1.7-.1 1.3-.1zm39.3-6.1.5.5c.1.1.2.1.2.1 0 .1-.1.1-.2.2s-4.7 3.1-5.2 3.4c0 0-.1.1-.1.1-.1.1-.1 0-.1 0v-.1c-.1-.1-.1-.1-.2-.2-.1-.2-.1-.2-.2-.2h-.1c-.1 0 0-.1 0-.1s.1 0 .1-.1c.1-.1 3.9-3.3 4.5-3.9.1 0 .1-.1.1-.1 0-.1.1-.1.1-.1.1 0 .1.2.2.2.2 0 .2.1.4.3zm-88.9 28.3c0-.1-2.5-5.5-4.9-11-2.5-5.6-5-11.3-5-11.4-.1-.1-.1-.2-.2-.2s-.2.2-.2.3c-.1.1-10.1 22.2-10.1 22.2s0 .1-.1.1c0 0-.1 0-.1.1v.1h.9.4c.1 0 .1 0 .2-.1s3.6-8.1 3.6-8.2 0-.1.2-.1h5.2 4.1c.1 0 .1 0 .2.1s3.5 7.9 3.6 8c0 .1.1.3.2.3 0 0 .2-.1.4 0h1.5c.1 0 .2 0 .1-.2zm-6.5-9.4c-.1 0-7.9 0-8.1 0s-.2-.2-.1-.2c0-.1 4-9 4.1-9.1.1-.2.2-.2.3 0 .1.1 3.9 9 4 9.2 0 0-.1.1-.2.1z"/><path d="m155 0c5.4 0 11.9 3.3 13.8 10.5.3 1.3.5 3 .5 4.5 0 10.3-8.1 16.3-13.4 18.3-.2.1-4.1 1.6-6.8 2-.3 0-.4-.4-.1-.5 2.5-1.3 5-2.5 7.7-4.8 1.9-1.5 7.7-7 7.7-16 0-7.8-4.4-12.2-9.8-12.2-4.7 0-7.6 3.5-8.5 5.3s-1.1 3.4-1.1 4.3c0 .3-.1 3-.1 6.5v21.1c0 2.5.6 4.1 1.3 5.2.8 1.3 1.5 1.9 2.1 2.3.1.1.1.4-.2.4s-.9-.1-1.2-.2c-1.7-.5-3-1.2-4.1-2.8h-.1c-.7 1.2-2 2.3-3.9 2.8 0 0-.9.2-1.4.2-.2 0-.4-.3-.2-.4.5-.4.9-.7 1.4-1.4 2.1-2.6 2-5.4 2-6.2 0-1 0-13.2 0-21 0-3.4-.1-5.7-.1-6.6 0-4.9-4.1-9.6-9.9-9.6-3.2 0-7.1 2.1-8.8 7-.5 1.5-.8 3.1-.8 5.3 0 6.4 3.4 12.6 7.9 16.1 4.1 3.2 6.4 4 7.5 4.5.3.1.4.5-.2.4-1.8-.2-3.7-.7-5.8-1.5-3.6-1.3-7.5-3.8-10.3-7.4-2.6-3.3-3.9-7.2-3.9-11.6 0-10.6 8.5-14.8 14.1-14.8 7.9 0 12.4 6.1 12.4 6.1s4.8-5.8 12.3-5.8"/></g></svg>